<?xml version="1.0" encoding="utf-8"?>
<!-- Generator: Adobe Illustrator 24.0.0, SVG Export Plug-In . SVG Version: 6.00 Build 0)  -->
<svg version="1.1" id="Layer_1" xmlns="http://www.w3.org/2000/svg" xmlns:xlink="http://www.w3.org/1999/xlink" x="0px" y="0px"
	 viewBox="0 0 968 239" style="enable-background:new 0 0 968 239;" xml:space="preserve">
<style type="text/css">
	.st0{fill:#1B1845;}
	.st1{fill:#FFFFFF;}
	.st2{fill:#01F8B9;}
</style>
<g>
	<path class="st0" d="M76.7,63.3c16.8,0,33.1,0,50,0c-3.9,22.3-7.8,44.3-11.7,66.6c12.3,0,24.2,0,36.8,0
		c3.9-22.1,7.9-44.2,11.8-66.5c33.5,0,66.6,0,100.3,0c-7.9,44.5-15.7,88.8-23.5,133.4c-62.6,0-124.8,0-187.3,0
		C61,152.2,68.8,108,76.7,63.3z M184.9,130.2c-5,0-9.6-0.1-14.2,0.1c-0.8,0-2,0.9-2.1,1.5c-1.9,10.2-3.7,20.5-5.6,31.2
		c2.6,0.1,4.4,0.3,6.1,0.3c18.2,0,36.3-0.2,54.5,0.1c4.6,0.1,6.3-1.4,7.1-5.8c3.2-19.2,6.7-38.4,10-57.6c1.1-6.5,2.2-13,3.4-20
		c-21.9,0-43.1,0-64.2,0.1c-0.9,0-2.4,1-2.5,1.7c-1,4.5-1.6,9.1-2.6,14.5c16.9,0,33.1,0,50.1,0c-3,16.8-5.8,32.6-8.8,48.5
		c-0.2,0.9-1.8,2.1-2.7,2.1c-10.1,0.1-20.3,0.1-31,0.1C183.3,141.2,184.1,136,184.9,130.2z M76,162.4c1,0.5,1.3,0.7,1.6,0.7
		c20.7,0.1,41.3,0.2,62,0.1c1.1,0,2.9-0.9,3.1-1.7c1.1-4.6,1.7-9.3,2.6-14.6c-17.1,0-33.2,0-50.1,0c3.9-22.5,7.8-44.4,11.7-66.9
		c-4.5,0-8.4,0.2-12.4-0.1c-3.2-0.2-4.2,1.1-4.7,4.2c-2.4,14.6-5.1,29.2-7.7,43.8C80.1,139.4,78.1,150.8,76,162.4z"/>
	<path class="st1" d="M664.7,167.8c1.7-9.7,3.2-18.9,4.8-28.4c-6.5,0-12.6,0-19,0c-1.7,9.5-3.4,18.9-5.2,28.4c-6.5,0-12.6,0-19.3,0
		c4-22.5,7.9-44.8,11.8-67c9.7-1.2,9.7-1.2,11.5-9.6c12.6,0,25.3,0,38.3,0c-0.4,2.8-0.7,5.6-1.2,8.8c3,0.2,5.9,0.4,9.3,0.7
		c-4,22.6-7.9,44.8-11.8,67.1C677.5,167.8,671.4,167.8,664.7,167.8z M654,119.8c5,0,9.3,0,13.6,0c1.6,0,3.3,0,5.4,0
		c0.6-3.3,1.1-6.2,1.7-9.8c-5.8,0-11.1-0.2-16.4,0.1c-1.1,0.1-2.7,1.5-3.1,2.7C654.4,114.8,654.4,117.1,654,119.8z"/>
	<path class="st1" d="M755.7,90.9c-0.5,3.4-0.8,6-1.3,9.1c3,0.2,5.9,0.5,9.3,0.8c-3.3,19.1-6.7,37.9-10.1,57.3
		c-3,0.2-6.1,0.3-9.5,0.5c-0.7,3.1-1.3,6.1-2,9.3c-16,0-31.8,0-48.1,0c2-11.8,4-23.4,6.1-34.9c2.3-12.8,4.5-25.6,6.9-38.3
		c0.3-1.4,1.8-3.5,2.8-3.5C725,90.8,740.1,90.9,755.7,90.9z M742.7,110.1c-2.6,0-4.6,0-6.5,0c-12.5,0-12.6,0-14.8,12.2
		c-1.6,8.6-3,17.3-4.5,26.2c6.7,0,12.7,0,19.1,0C738.2,135.7,740.4,123.2,742.7,110.1z"/>
	<path class="st1" d="M881.3,91.1c16.1,0,31.7,0,48.1,0c-1.1,6.4-2.1,12.5-3.2,19c-11.6,0-22.9,0.1-34.2-0.1c-3.2,0-4.6,0.6-5.2,4.2
		c-1.7,11.3-3.9,22.6-6,34.3c6.6,0,12.6,0,19.1,0c0.5-2.9,1-5.8,1.6-9.1c-3.4-0.2-6.3-0.3-9.4-0.5c1.1-6.4,2.2-12.4,3.3-18.7
		c9.6,0,19,0,29,0c-2.2,12.7-4.4,25.1-6.7,38c-3.1,0-6,0-8.5,0c-0.7,0.7-1,0.9-1.1,1.2c-2.6,8.7-2.6,8.7-11.9,8.7
		c-9.3,0-18.6,0-28.3,0c0.4-3.4,0.8-6.2,1.2-9.4c-3.1-0.2-5.9-0.3-9.3-0.5c1.8-10.5,3.5-20.6,5.3-30.7c1.3-7.7,2.7-15.4,4-23.1
		c0.4-2.3,0.9-4.5,3.9-3.9c5.5,1.1,7.5-1.6,7.7-6.6C880.8,93.1,881.1,92.3,881.3,91.1z"/>
	<path class="st1" d="M581.3,91.1c12.9,0,25.4,0,38.2,0c-0.4,2.9-0.7,5.7-1.1,9c2.9,0.2,5.8,0.4,9.3,0.7
		c-3.4,19.2-6.7,38.1-10.1,57.4c-3.2,0-6.1,0-9.4,0c-0.8,3.4-1.5,6.4-2.2,9.6c-12.8,0-25.3,0-38.3,0c0.4-3,0.8-5.8,1.3-9.1
		c-3.1-0.2-6-0.5-9.3-0.7c1.9-10.8,3.7-21.2,5.5-31.7c1.3-7.4,2.5-14.8,4-22.1c0.3-1.4,2.4-3.8,3.3-3.6c5.9,0.8,8.1-1.9,8.2-7.3
		C580.9,92.7,581.1,92,581.3,91.1z M580.8,148.5c6.7,0,12.8,0,19.2,0c2.2-12.8,4.4-25.3,6.7-38.4c-6,0-11.3-0.1-16.6,0.1
		c-1,0.1-2.8,1.4-2.9,2.3C585,124.3,583,136.1,580.8,148.5z"/>
	<path class="st1" d="M839.7,110.1c-6,0-11.3-0.2-16.6,0.2c-1.2,0.1-2.9,2.3-3.1,3.8c-3.1,16.5-6.1,33-8.8,49.6
		c-0.6,3.7-2,4.7-5.4,4.4c-4.8-0.3-9.6-0.1-14.8-0.1c3.2-18.3,6.3-36.1,9.5-54c0.3-1.8,0.8-3.6,0.9-5.4c0.4-5.5,1.7-9.8,8.8-8.4
		c0.8,0.2,2.3-1.4,2.7-2.5c0.8-2,0.9-4.2,1.4-6.5c12.7,0,25.3,0,38.3,0c-0.4,2.9-0.7,5.8-1.1,8.9c3.1,0.2,5.9,0.4,9.3,0.6
		c-4,22.5-7.9,44.7-11.8,67.1c-6.3,0-12.4,0-19.3,0C833,148.7,836.3,129.8,839.7,110.1z"/>
	<path class="st1" d="M414.7,158.1c-3.4,0.1-6.4,0.3-9.5,0.4c-0.7,3.1-1.3,6-2,9.2c-12.7,0-25.2,0-38.2,0c0.4-2.9,0.7-5.8,1.1-9.3
		c-3.1,0-5.8,0-9.3,0c1.2-6.8,2.2-12.9,3.3-19.2c6.4,0,12.5,0,19.1,0c-0.4,3.1-0.7,6-1.1,9.2c6.3,0,12.4,0,18.9,0
		c3.4-19.1,6.8-38.1,10.2-57.3c6.5,0,12.6,0,19.3,0C422.5,113.5,418.6,135.5,414.7,158.1z"/>
	<path class="st1" d="M319.9,90.9c-3.4,19.5-6.7,38.3-10.1,57.7c12.9,0,25.3,0,38.5,0c-1.2,6.8-2.2,12.9-3.3,19.2c-16,0-31.8,0-48,0
		c0.4-3.1,0.7-5.9,1.1-9.4c-3,0-5.8,0-9.3,0c1.5-8.9,2.9-17.2,4.4-25.5c2.3-12.8,4.7-25.5,6.7-38.3c0.5-3,1.6-3.9,4.5-3.8
		C309.3,91,314.3,90.9,319.9,90.9z"/>
	<path class="st1" d="M548.9,167.8c-16.2,0-31.9,0-48.1,0c0.4-3.1,0.8-6,1.2-9.2c-3.2-0.2-5.9-0.4-9.2-0.6
		c1.8-10.3,3.5-20.2,5.3-30.2c2-11.1,4.1-22.3,5.9-33.4c0.4-2.7,1.5-3.7,4.1-3.6c5.1,0.2,10.3,0.1,15.9,0.1
		c-3.4,19.4-6.7,38.4-10.1,57.9c13,0,25.4,0,38.5,0C551.1,155.5,550,161.6,548.9,167.8z"/>
	<path class="st1" d="M781.4,167.8c-6.5,0-12.7,0-19.3,0c1.7-9.9,3.4-19.7,5.1-29.4c2.6-14.6,5.3-29.1,7.7-43.8
		c0.5-3,1.6-3.9,4.5-3.8c5,0.2,10,0.1,15.6,0.1C790.3,116.8,785.9,142.2,781.4,167.8z"/>
	<path class="st1" d="M431.4,120.1c19.3,0,38.2,0,57.9,0c-1.1,6.4-2.1,12.5-3.2,18.8c-19.4,0-38.4,0-57.9,0
		C429.2,132.6,430.3,126.6,431.4,120.1z"/>
	<path class="st2" d="M184.9,130.2c-0.9,5.8-1.6,11-2.5,16.8c10.8,0,20.9,0.1,31-0.1c0.9,0,2.6-1.2,2.7-2.1
		c3-15.8,5.8-31.7,8.8-48.5c-17,0-33.2,0-50.1,0c0.9-5.4,1.6-10,2.6-14.5c0.2-0.7,1.6-1.7,2.5-1.7c21.1-0.1,42.3-0.1,64.2-0.1
		c-1.2,7-2.2,13.5-3.4,20c-3.4,19.2-6.9,38.4-10,57.6c-0.7,4.5-2.5,5.9-7.1,5.8c-18.2-0.3-36.3-0.1-54.5-0.1c-1.8,0-3.6-0.2-6.1-0.3
		c1.9-10.7,3.7-21,5.6-31.2c0.1-0.6,1.4-1.5,2.1-1.5C175.3,130.1,179.9,130.2,184.9,130.2z"/>
	<path class="st2" d="M76,162.4c2-11.5,4-23,6.1-34.5c2.6-14.6,5.3-29.2,7.7-43.8c0.5-3,1.5-4.4,4.7-4.2c3.9,0.3,7.9,0.1,12.4,0.1
		c-3.9,22.5-7.8,44.4-11.7,66.9c16.9,0,33,0,50.1,0c-0.9,5.3-1.6,10-2.6,14.6c-0.2,0.8-2,1.7-3.1,1.7c-20.7,0-41.3-0.1-62-0.1
		C77.3,163.1,77,162.8,76,162.4z"/>
</g>
</svg>
